<svg width="480" height="982" viewBox="0 0 480 982" fill="none" xmlns="http://www.w3.org/2000/svg">
<g filter="url(#filter0_d_30_418)">
<g clip-path="url(#clip0_30_418)">
<rect x="20" y="20" width="430" height="932" rx="20" fill="#FFFBFB"/>
<path opacity="0.35" d="M379.211 39.5606H396.699C397.895 39.5606 398.865 40.5307 398.865 41.7273V50.8182C398.865 52.0148 397.895 52.9848 396.699 52.9848H379.211C378.014 52.9848 377.044 52.0148 377.044 50.8182V41.7273C377.044 40.5307 378.014 39.5606 379.211 39.5606Z" stroke="black"/>
<path opacity="0.4" d="M400.403 43.7273V48.8182C401.237 48.387 401.78 47.384 401.78 46.2727C401.78 45.1615 401.237 44.1584 400.403 43.7273" fill="black"/>
<path d="M378.619 42.9394C378.619 42.203 379.216 41.6061 379.952 41.6061H395.957C396.694 41.6061 397.291 42.203 397.291 42.9394V49.6061C397.291 50.3424 396.694 50.9394 395.957 50.9394H379.952C379.216 50.9394 378.619 50.3424 378.619 49.6061V42.9394Z" fill="black"/>
<path fill-rule="evenodd" clip-rule="evenodd" d="M358.374 41.9557C361.384 41.9558 364.279 43.0394 366.461 44.9826C366.625 45.1326 366.888 45.1308 367.049 44.9784L368.62 43.4935C368.702 43.4162 368.747 43.3116 368.747 43.2026C368.746 43.0937 368.699 42.9895 368.616 42.9132C362.89 37.7719 353.857 37.7719 348.131 42.9132C348.048 42.9895 348.001 43.0936 348 43.2026C347.999 43.3115 348.045 43.4162 348.127 43.4935L349.698 44.9784C349.859 45.131 350.122 45.1329 350.286 44.9826C352.468 43.0393 355.363 41.9556 358.374 41.9557ZM358.374 46.7865C360.028 46.7864 361.623 47.3624 362.849 48.4024C363.014 48.55 363.276 48.5468 363.437 48.3952L365.006 46.9104C365.088 46.8325 365.134 46.7268 365.133 46.617C365.132 46.5073 365.084 46.4025 364.999 46.3262C361.266 43.0726 355.485 43.0726 351.751 46.3262C351.667 46.4025 351.619 46.5073 351.618 46.6171C351.617 46.727 351.663 46.8326 351.746 46.9104L353.314 48.3952C353.475 48.5468 353.737 48.55 353.902 48.4024C355.127 47.363 356.721 46.7871 358.374 46.7865ZM361.516 50.0368C361.518 50.1469 361.472 50.2531 361.388 50.3302L358.675 52.8956C358.595 52.971 358.487 53.0134 358.374 53.0134C358.261 53.0134 358.152 52.971 358.073 52.8956L355.359 50.3302C355.275 50.253 355.229 50.1468 355.232 50.0367C355.234 49.9266 355.285 49.8224 355.372 49.7486C357.105 48.3754 359.643 48.3754 361.376 49.7486C361.463 49.8224 361.514 49.9267 361.516 50.0368Z" fill="black"/>
<path fill-rule="evenodd" clip-rule="evenodd" d="M340.574 39.4848H339.475C338.869 39.4848 338.377 40.0725 338.377 40.7973V52.1723C338.377 52.8972 338.869 53.4848 339.475 53.4848H340.574C341.18 53.4848 341.672 52.8972 341.672 52.1723V40.7973C341.672 40.0725 341.18 39.4848 340.574 39.4848ZM334.35 42.5473H335.448C336.055 42.5473 336.546 43.135 336.546 43.8598V52.1723C336.546 52.8972 336.055 53.4848 335.448 53.4848H334.35C333.743 53.4848 333.251 52.8972 333.251 52.1723V43.8598C333.251 43.135 333.743 42.5473 334.35 42.5473ZM330.322 45.6098H329.224C328.617 45.6098 328.126 46.1975 328.126 46.9223V52.1723C328.126 52.8972 328.617 53.4848 329.224 53.4848H330.322C330.929 53.4848 331.421 52.8972 331.421 52.1723V46.9223C331.421 46.1975 330.929 45.6098 330.322 45.6098ZM325.197 48.2348H324.098C323.492 48.2348 323 48.8225 323 49.5473V52.1723C323 52.8972 323.492 53.4848 324.098 53.4848H325.197C325.803 53.4848 326.295 52.8972 326.295 52.1723V49.5473C326.295 48.8225 325.803 48.2348 325.197 48.2348Z" fill="black"/>
<path d="M65.9681 41.2855C66.604 41.2855 67.2157 41.3922 67.8033 41.6055C68.3949 41.8188 68.9221 42.1588 69.385 42.6257C69.8518 43.0926 70.2201 43.7124 70.4897 44.4851C70.7634 45.2538 70.9022 46.1976 70.9063 47.3164C70.9063 48.3668 70.7875 49.3046 70.5501 50.1296C70.3167 50.9506 69.9806 51.6489 69.5419 52.2244C69.1032 52.7999 68.574 53.2386 67.9542 53.5405C67.3344 53.8383 66.6422 53.9872 65.8775 53.9872C65.0525 53.9872 64.324 53.8282 63.6921 53.5103C63.0603 53.1883 62.5512 52.7517 62.1648 52.2003C61.7825 51.6449 61.551 51.0211 61.4705 50.3288H64.0483C64.1489 50.7796 64.3602 51.1297 64.6822 51.3793C65.0042 51.6248 65.4026 51.7475 65.8775 51.7475C66.6824 51.7475 67.2942 51.3974 67.7127 50.6971C68.1313 49.9928 68.3426 49.0289 68.3466 47.8054H68.2621C68.077 48.1676 67.8274 48.4795 67.5135 48.7411C67.1996 48.9987 66.8394 49.1979 66.4329 49.3388C66.0304 49.4796 65.6018 49.5501 65.147 49.5501C64.4186 49.5501 63.7686 49.379 63.1971 49.0369C62.6256 48.6948 62.1749 48.224 61.8448 47.6243C61.5148 47.0246 61.3498 46.3404 61.3498 45.5717C61.3458 44.7427 61.537 44.0041 61.9233 43.3562C62.3097 42.7082 62.849 42.2011 63.5412 41.8349C64.2375 41.4646 65.0464 41.2815 65.9681 41.2855ZM65.9862 43.3381C65.5797 43.3381 65.2175 43.4347 64.8995 43.6278C64.5856 43.821 64.3361 44.0806 64.1509 44.4066C63.9698 44.7326 63.8813 45.0968 63.8853 45.4993C63.8853 45.9058 63.9739 46.272 64.1509 46.598C64.3321 46.92 64.5776 47.1776 64.8875 47.3707C65.2014 47.5599 65.5596 47.6545 65.962 47.6545C66.2639 47.6545 66.5436 47.5981 66.8012 47.4854C67.0587 47.3727 67.2821 47.2178 67.4713 47.0206C67.6644 46.8194 67.8154 46.5879 67.924 46.3263C68.0327 46.0647 68.087 45.787 68.087 45.4932C68.083 45.1029 67.9904 44.7447 67.8093 44.4187C67.6282 44.0927 67.3787 43.8311 67.0607 43.6339C66.7428 43.4367 66.3846 43.3381 65.9862 43.3381ZM73.9047 52.3814C73.5063 52.3814 73.1642 52.2405 72.8784 51.9588C72.5967 51.6771 72.4558 51.335 72.4558 50.9325C72.4558 50.5381 72.5967 50.2 72.8784 49.9183C73.1642 49.6366 73.5063 49.4957 73.9047 49.4957C74.2911 49.4957 74.6291 49.6366 74.9189 49.9183C75.2087 50.2 75.3536 50.5381 75.3536 50.9325C75.3536 51.1981 75.2851 51.4416 75.1483 51.663C75.0155 51.8803 74.8404 52.0554 74.6231 52.1882C74.4058 52.317 74.1663 52.3814 73.9047 52.3814ZM73.9047 46.3143C73.5063 46.3143 73.1642 46.1734 72.8784 45.8917C72.5967 45.61 72.4558 45.2679 72.4558 44.8654C72.4558 44.471 72.5967 44.1349 72.8784 43.8572C73.1642 43.5755 73.5063 43.4347 73.9047 43.4347C74.2911 43.4347 74.6291 43.5755 74.9189 43.8572C75.2087 44.1349 75.3536 44.471 75.3536 44.8654C75.3536 45.1351 75.2851 45.3806 75.1483 45.6019C75.0155 45.8192 74.8404 45.9923 74.6231 46.1211C74.4058 46.2499 74.1663 46.3143 73.9047 46.3143ZM76.9137 51.6449V49.5863L82.0753 41.4545H83.8501V44.304H82.7997L79.5458 49.4535V49.5501H86.8807V51.6449H76.9137ZM82.848 53.8182V51.017L82.8963 50.1055V41.4545H85.3473V53.8182H82.848ZM93.4952 41.4545V53.8182H90.8812V43.9357H90.8088L87.9774 45.7106V43.3924L91.0382 41.4545H93.4952Z" fill="black"/>
<rect x="95" y="386" width="50" height="48" rx="5" fill="#0000FF"/>
<path d="M103.524 429V395.4H111.348L129.876 417.768H126.18V395.4H135.492V429H127.668L109.14 406.632H112.836V429H103.524Z" fill="white"/>
<path d="M163.94 423V393.6H170.786L186.998 413.172H183.764V393.6H191.912V423H185.066L168.854 403.428H172.088V423H163.94ZM205.422 404.982H219.072V411.198H205.422V404.982ZM206.01 416.574H221.382V423H197.778V393.6H220.836V400.026H206.01V416.574ZM232.852 423L223.318 393.6H231.886L239.908 419.052H235.582L244.024 393.6H251.668L259.648 419.052H255.49L263.764 393.6H271.702L262.168 423H253.264L246.46 401.37H248.854L241.756 423H232.852ZM285.014 423.588C282.606 423.588 280.282 423.294 278.042 422.706C275.83 422.09 274.024 421.306 272.624 420.354L275.354 414.222C276.67 415.062 278.182 415.762 279.89 416.322C281.626 416.854 283.348 417.12 285.056 417.12C286.204 417.12 287.128 417.022 287.828 416.826C288.528 416.602 289.032 416.322 289.34 415.986C289.676 415.622 289.844 415.202 289.844 414.726C289.844 414.054 289.536 413.522 288.92 413.13C288.304 412.738 287.506 412.416 286.526 412.164C285.546 411.912 284.454 411.66 283.25 411.408C282.074 411.156 280.884 410.834 279.68 410.442C278.504 410.05 277.426 409.546 276.446 408.93C275.466 408.286 274.668 407.46 274.052 406.452C273.436 405.416 273.128 404.114 273.128 402.546C273.128 400.782 273.604 399.186 274.556 397.758C275.536 396.33 276.992 395.182 278.924 394.314C280.856 393.446 283.264 393.012 286.148 393.012C288.08 393.012 289.97 393.236 291.818 393.684C293.694 394.104 295.36 394.734 296.816 395.574L294.254 401.748C292.854 400.992 291.468 400.432 290.096 400.068C288.724 399.676 287.394 399.48 286.106 399.48C284.958 399.48 284.034 399.606 283.334 399.858C282.634 400.082 282.13 400.39 281.822 400.782C281.514 401.174 281.36 401.622 281.36 402.126C281.36 402.77 281.654 403.288 282.242 403.68C282.858 404.044 283.656 404.352 284.636 404.604C285.644 404.828 286.736 405.066 287.912 405.318C289.116 405.57 290.306 405.892 291.482 406.284C292.686 406.648 293.778 407.152 294.758 407.796C295.738 408.412 296.522 409.238 297.11 410.274C297.726 411.282 298.034 412.556 298.034 414.096C298.034 415.804 297.544 417.386 296.564 418.842C295.612 420.27 294.17 421.418 292.238 422.286C290.334 423.154 287.926 423.588 285.014 423.588ZM301.876 423V393.6H310.192V423H301.876ZM323.836 406.494H337.402V412.92H323.836V406.494ZM324.424 423H316.108V393.6H339.166V400.026H324.424V423ZM350.489 423V410.568L352.421 415.566L339.275 393.6H348.053L357.545 409.518H352.463L361.997 393.6H370.061L356.957 415.566L358.805 410.568V423H350.489Z" fill="black"/>
</g>
</g>
<defs>
<filter id="filter0_d_30_418" x="0" y="0" width="480" height="982" filterUnits="userSpaceOnUse" color-interpolation-filters="sRGB">
<feFlood flood-opacity="0" result="BackgroundImageFix"/>
<feColorMatrix in="SourceAlpha" type="matrix" values="0 0 0 0 0 0 0 0 0 0 0 0 0 0 0 0 0 0 127 0" result="hardAlpha"/>
<feMorphology radius="10" operator="dilate" in="SourceAlpha" result="effect1_dropShadow_30_418"/>
<feOffset dx="5" dy="5"/>
<feGaussianBlur stdDeviation="7.5"/>
<feComposite in2="hardAlpha" operator="out"/>
<feColorMatrix type="matrix" values="0 0 0 0 0.117647 0 0 0 0 0.317647 0 0 0 0 0.831373 0 0 0 0.08 0"/>
<feBlend mode="normal" in2="BackgroundImageFix" result="effect1_dropShadow_30_418"/>
<feBlend mode="normal" in="SourceGraphic" in2="effect1_dropShadow_30_418" result="shape"/>
</filter>
<clipPath id="clip0_30_418">
<rect x="20" y="20" width="430" height="932" rx="20" fill="white"/>
</clipPath>
</defs>
</svg>
