<svg width="118" height="118" viewBox="0 0 118 118" fill="none" xmlns="http://www.w3.org/2000/svg">
<path d="M4.72 0H0V4.72H4.72V0Z" fill="black"/>
<path d="M9.44 0H4.72V4.72H9.44V0Z" fill="black"/>
<path d="M14.16 0H9.44V4.72H14.16V0Z" fill="black"/>
<path d="M18.88 0H14.16V4.72H18.88V0Z" fill="black"/>
<path d="M23.6 0H18.88V4.72H23.6V0Z" fill="black"/>
<path d="M28.32 0H23.6V4.72H28.32V0Z" fill="black"/>
<path d="M33.04 0H28.32V4.72H33.04V0Z" fill="black"/>
<path d="M42.48 0H37.76V4.72H42.48V0Z" fill="black"/>
<path d="M47.2 0H42.48V4.72H47.2V0Z" fill="black"/>
<path d="M51.92 0H47.2V4.72H51.92V0Z" fill="black"/>
<path d="M56.64 0H51.92V4.72H56.64V0Z" fill="black"/>
<path d="M66.08 0H61.36V4.72H66.08V0Z" fill="black"/>
<path d="M80.24 0H75.52V4.72H80.24V0Z" fill="black"/>
<path d="M89.68 0H84.96V4.72H89.68V0Z" fill="black"/>
<path d="M94.4 0H89.68V4.72H94.4V0Z" fill="black"/>
<path d="M99.12 0H94.4V4.72H99.12V0Z" fill="black"/>
<path d="M103.84 0H99.12V4.72H103.84V0Z" fill="black"/>
<path d="M108.56 0H103.84V4.72H108.56V0Z" fill="black"/>
<path d="M113.28 0H108.56V4.72H113.28V0Z" fill="black"/>
<path d="M118 0H113.28V4.72H118V0Z" fill="black"/>
<path d="M4.72 4.72H0V9.44H4.72V4.72Z" fill="black"/>
<path d="M33.04 4.72H28.32L28.32 9.44H33.04V4.72Z" fill="black"/>
<path d="M47.2 4.72H42.48V9.44H47.2V4.72Z" fill="black"/>
<path d="M51.92 4.72H47.2V9.44H51.92V4.72Z" fill="black"/>
<path d="M56.64 4.72H51.92V9.44H56.64V4.72Z" fill="black"/>
<path d="M61.36 4.72H56.64V9.44H61.36V4.72Z" fill="black"/>
<path d="M80.24 4.72H75.52V9.44H80.24V4.72Z" fill="black"/>
<path d="M89.68 4.72H84.96V9.44H89.68V4.72Z" fill="black"/>
<path d="M118 4.72H113.28V9.44H118V4.72Z" fill="black"/>
<path d="M4.72 9.44H0V14.16H4.72V9.44Z" fill="black"/>
<path d="M14.16 9.44H9.44V14.16H14.16V9.44Z" fill="black"/>
<path d="M18.88 9.44H14.16V14.16H18.88V9.44Z" fill="black"/>
<path d="M23.6 9.44H18.88V14.16H23.6V9.44Z" fill="black"/>
<path d="M33.04 9.44H28.32V14.16H33.04V9.44Z" fill="black"/>
<path d="M47.2 9.44H42.48V14.16H47.2V9.44Z" fill="black"/>
<path d="M51.92 9.44H47.2V14.16H51.92V9.44Z" fill="black"/>
<path d="M56.64 9.44H51.92V14.16H56.64V9.44Z" fill="black"/>
<path d="M66.08 9.44H61.36V14.16H66.08V9.44Z" fill="black"/>
<path d="M70.8 9.44H66.08V14.16H70.8V9.44Z" fill="black"/>
<path d="M89.68 9.44H84.96V14.16H89.68V9.44Z" fill="black"/>
<path d="M99.12 9.44H94.4V14.16H99.12V9.44Z" fill="black"/>
<path d="M103.84 9.44H99.12V14.16H103.84V9.44Z" fill="black"/>
<path d="M108.56 9.44H103.84V14.16H108.56V9.44Z" fill="black"/>
<path d="M118 9.44H113.28V14.16H118V9.44Z" fill="black"/>
<path d="M4.72 14.16H0V18.88H4.72V14.16Z" fill="black"/>
<path d="M14.16 14.16H9.44V18.88H14.16V14.16Z" fill="black"/>
<path d="M18.88 14.16H14.16V18.88H18.88V14.16Z" fill="black"/>
<path d="M23.6 14.16H18.88V18.88H23.6V14.16Z" fill="black"/>
<path d="M33.04 14.16H28.32V18.88H33.04V14.16Z" fill="black"/>
<path d="M56.64 14.16H51.92V18.88H56.64V14.16Z" fill="black"/>
<path d="M66.08 14.16H61.36V18.88H66.08V14.16Z" fill="black"/>
<path d="M89.68 14.16H84.96V18.88H89.68V14.16Z" fill="black"/>
<path d="M99.12 14.16H94.4V18.88H99.12V14.16Z" fill="black"/>
<path d="M103.84 14.16H99.12V18.88H103.84V14.16Z" fill="black"/>
<path d="M108.56 14.16H103.84V18.88H108.56V14.16Z" fill="black"/>
<path d="M118 14.16H113.28V18.88H118V14.16Z" fill="black"/>
<path d="M4.72 18.88H0V23.6H4.72V18.88Z" fill="black"/>
<path d="M14.16 18.88H9.44V23.6H14.16V18.88Z" fill="black"/>
<path d="M18.88 18.88H14.16V23.6H18.88V18.88Z" fill="black"/>
<path d="M23.6 18.88H18.88V23.6H23.6V18.88Z" fill="black"/>
<path d="M33.04 18.88H28.32V23.6H33.04V18.88Z" fill="black"/>
<path d="M42.48 18.88H37.76V23.6H42.48V18.88Z" fill="black"/>
<path d="M47.2 18.88H42.48V23.6H47.2V18.88Z" fill="black"/>
<path d="M51.92 18.88H47.2V23.6H51.92V18.88Z" fill="black"/>
<path d="M56.64 18.88H51.92V23.6H56.64V18.88Z" fill="black"/>
<path d="M66.08 18.88H61.36V23.6H66.08V18.88Z" fill="black"/>
<path d="M80.24 18.88H75.52V23.6H80.24V18.88Z" fill="black"/>
<path d="M89.68 18.88H84.96V23.6H89.68V18.88Z" fill="black"/>
<path d="M99.12 18.88H94.4V23.6H99.12V18.88Z" fill="black"/>
<path d="M103.84 18.88H99.12V23.6H103.84V18.88Z" fill="black"/>
<path d="M108.56 18.88H103.84V23.6H108.56V18.88Z" fill="black"/>
<path d="M118 18.88H113.28V23.6H118V18.88Z" fill="black"/>
<path d="M4.72 23.6H0V28.32H4.72V23.6Z" fill="black"/>
<path d="M33.04 23.6H28.32V28.32H33.04V23.6Z" fill="black"/>
<path d="M61.36 23.6H56.64V28.32H61.36V23.6Z" fill="black"/>
<path d="M75.52 23.6H70.8V28.32H75.52V23.6Z" fill="black"/>
<path d="M80.24 23.6H75.52V28.32H80.24V23.6Z" fill="black"/>
<path d="M89.68 23.6H84.96V28.32H89.68V23.6Z" fill="black"/>
<path d="M118 23.6H113.28V28.32H118V23.6Z" fill="black"/>
<path d="M4.72 28.32H0V33.04H4.72V28.32Z" fill="black"/>
<path d="M9.44 28.32L4.72 28.32V33.04H9.44V28.32Z" fill="black"/>
<path d="M14.16 28.32H9.44V33.04H14.16V28.32Z" fill="black"/>
<path d="M18.88 28.32H14.16V33.04H18.88V28.32Z" fill="black"/>
<path d="M23.6 28.32H18.88V33.04H23.6V28.32Z" fill="black"/>
<path d="M28.32 28.32L23.6 28.32V33.04H28.32L28.32 28.32Z" fill="black"/>
<path d="M33.04 28.32H28.32L28.32 33.04H33.04V28.32Z" fill="black"/>
<path d="M42.48 28.32H37.76V33.04H42.48V28.32Z" fill="black"/>
<path d="M51.92 28.32H47.2V33.04H51.92V28.32Z" fill="black"/>
<path d="M61.36 28.32H56.64V33.04H61.36V28.32Z" fill="black"/>
<path d="M70.8 28.32L66.08 28.32V33.04H70.8L70.8 28.32Z" fill="black"/>
<path d="M80.24 28.32H75.52V33.04H80.24V28.32Z" fill="black"/>
<path d="M89.68 28.32H84.96V33.04H89.68V28.32Z" fill="black"/>
<path d="M94.4 28.32L89.68 28.32V33.04H94.4V28.32Z" fill="black"/>
<path d="M99.12 28.32H94.4V33.04H99.12V28.32Z" fill="black"/>
<path d="M103.84 28.32H99.12V33.04H103.84V28.32Z" fill="black"/>
<path d="M108.56 28.32H103.84V33.04H108.56V28.32Z" fill="black"/>
<path d="M113.28 28.32L108.56 28.32V33.04H113.28V28.32Z" fill="black"/>
<path d="M118 28.32H113.28V33.04H118V28.32Z" fill="black"/>
<path d="M42.48 33.04H37.76V37.76H42.48V33.04Z" fill="black"/>
<path d="M47.2 33.04H42.48V37.76H47.2V33.04Z" fill="black"/>
<path d="M56.64 33.04H51.92V37.76H56.64V33.04Z" fill="black"/>
<path d="M61.36 33.04H56.64V37.76H61.36V33.04Z" fill="black"/>
<path d="M66.08 33.04H61.36V37.76H66.08V33.04Z" fill="black"/>
<path d="M70.8 33.04H66.08V37.76H70.8V33.04Z" fill="black"/>
<path d="M4.72 37.76H0V42.48H4.72V37.76Z" fill="black"/>
<path d="M18.88 37.76H14.16V42.48H18.88V37.76Z" fill="black"/>
<path d="M23.6 37.76H18.88V42.48H23.6V37.76Z" fill="black"/>
<path d="M28.32 37.76H23.6V42.48H28.32V37.76Z" fill="black"/>
<path d="M33.04 37.76H28.32V42.48H33.04V37.76Z" fill="black"/>
<path d="M37.76 37.76H33.04V42.48H37.76V37.76Z" fill="black"/>
<path d="M42.48 37.76H37.76V42.48H42.48V37.76Z" fill="black"/>
<path d="M47.2 37.76H42.48V42.48H47.2V37.76Z" fill="black"/>
<path d="M56.64 37.76H51.92V42.48H56.64V37.76Z" fill="black"/>
<path d="M66.08 37.76H61.36V42.48H66.08V37.76Z" fill="black"/>
<path d="M75.52 37.76H70.8L70.8 42.48H75.52V37.76Z" fill="black"/>
<path d="M80.24 37.76H75.52V42.48H80.24V37.76Z" fill="black"/>
<path d="M84.96 37.76H80.24V42.48H84.96V37.76Z" fill="black"/>
<path d="M89.68 37.76H84.96V42.48H89.68V37.76Z" fill="black"/>
<path d="M99.12 37.76H94.4V42.48H99.12V37.76Z" fill="black"/>
<path d="M118 37.76H113.28V42.48H118V37.76Z" fill="black"/>
<path d="M18.88 42.48H14.16V47.2H18.88V42.48Z" fill="black"/>
<path d="M23.6 42.48H18.88V47.2H23.6V42.48Z" fill="black"/>
<path d="M37.76 42.48H33.04V47.2H37.76V42.48Z" fill="black"/>
<path d="M42.48 42.48H37.76V47.2H42.48V42.48Z" fill="black"/>
<path d="M70.8 42.48H66.08V47.2H70.8L70.8 42.48Z" fill="black"/>
<path d="M84.96 42.48H80.24V47.2H84.96V42.48Z" fill="black"/>
<path d="M89.68 42.48H84.96V47.2H89.68V42.48Z" fill="black"/>
<path d="M103.84 42.48H99.12V47.2H103.84V42.48Z" fill="black"/>
<path d="M113.28 42.48H108.56V47.2H113.28V42.48Z" fill="black"/>
<path d="M9.44 47.2H4.72V51.92H9.44V47.2Z" fill="black"/>
<path d="M14.16 47.2H9.44V51.92H14.16V47.2Z" fill="black"/>
<path d="M18.88 47.2H14.16V51.92H18.88V47.2Z" fill="black"/>
<path d="M23.6 47.2H18.88V51.92H23.6V47.2Z" fill="black"/>
<path d="M28.32 47.2H23.6V51.92H28.32V47.2Z" fill="black"/>
<path d="M33.04 47.2H28.32V51.92H33.04V47.2Z" fill="black"/>
<path d="M37.76 47.2H33.04V51.92H37.76V47.2Z" fill="black"/>
<path d="M42.48 47.2H37.76V51.92H42.48V47.2Z" fill="black"/>
<path d="M47.2 47.2H42.48V51.92H47.2V47.2Z" fill="black"/>
<path d="M51.92 47.2H47.2V51.92H51.92V47.2Z" fill="black"/>
<path d="M56.64 47.2H51.92V51.92H56.64V47.2Z" fill="black"/>
<path d="M61.36 47.2H56.64V51.92H61.36V47.2Z" fill="black"/>
<path d="M70.8 47.2H66.08V51.92H70.8V47.2Z" fill="black"/>
<path d="M80.24 47.2H75.52V51.92H80.24V47.2Z" fill="black"/>
<path d="M84.96 47.2H80.24V51.92H84.96V47.2Z" fill="black"/>
<path d="M89.68 47.2H84.96V51.92H89.68V47.2Z" fill="black"/>
<path d="M99.12 47.2H94.4V51.92H99.12V47.2Z" fill="black"/>
<path d="M108.56 47.2H103.84V51.92H108.56V47.2Z" fill="black"/>
<path d="M118 47.2H113.28V51.92H118V47.2Z" fill="black"/>
<path d="M4.72 51.92H0V56.64H4.72V51.92Z" fill="black"/>
<path d="M9.44 51.92H4.72V56.64H9.44V51.92Z" fill="black"/>
<path d="M14.16 51.92H9.44V56.64H14.16V51.92Z" fill="black"/>
<path d="M18.88 51.92H14.16V56.64H18.88V51.92Z" fill="black"/>
<path d="M28.32 51.92H23.6V56.64H28.32V51.92Z" fill="black"/>
<path d="M42.48 51.92H37.76V56.64H42.48V51.92Z" fill="black"/>
<path d="M56.64 51.92H51.92V56.64H56.64V51.92Z" fill="black"/>
<path d="M70.8 51.92H66.08V56.64H70.8V51.92Z" fill="black"/>
<path d="M75.52 51.92H70.8V56.64H75.52V51.92Z" fill="black"/>
<path d="M99.12 51.92H94.4V56.64H99.12V51.92Z" fill="black"/>
<path d="M108.56 51.92H103.84V56.64H108.56V51.92Z" fill="black"/>
<path d="M113.28 51.92H108.56V56.64H113.28V51.92Z" fill="black"/>
<path d="M4.72 56.64H0V61.36H4.72V56.64Z" fill="black"/>
<path d="M9.44 56.64H4.72V61.36H9.44V56.64Z" fill="black"/>
<path d="M14.16 56.64H9.44V61.36H14.16V56.64Z" fill="black"/>
<path d="M23.6 56.64H18.88V61.36H23.6V56.64Z" fill="black"/>
<path d="M28.32 56.64H23.6V61.36H28.32V56.64Z" fill="black"/>
<path d="M33.04 56.64H28.32V61.36H33.04V56.64Z" fill="black"/>
<path d="M37.76 56.64H33.04V61.36H37.76V56.64Z" fill="black"/>
<path d="M42.48 56.64H37.76V61.36H42.48V56.64Z" fill="black"/>
<path d="M47.2 56.64H42.48V61.36H47.2V56.64Z" fill="black"/>
<path d="M51.92 56.64H47.2V61.36H51.92V56.64Z" fill="black"/>
<path d="M66.08 56.64H61.36V61.36H66.08V56.64Z" fill="black"/>
<path d="M70.8 56.64H66.08V61.36H70.8V56.64Z" fill="black"/>
<path d="M80.24 56.64H75.52V61.36H80.24V56.64Z" fill="black"/>
<path d="M94.4 56.64H89.68V61.36H94.4V56.64Z" fill="black"/>
<path d="M103.84 56.64H99.12V61.36H103.84V56.64Z" fill="black"/>
<path d="M108.56 56.64H103.84V61.36H108.56V56.64Z" fill="black"/>
<path d="M118 56.64H113.28V61.36H118V56.64Z" fill="black"/>
<path d="M4.72 61.36H0V66.08H4.72V61.36Z" fill="black"/>
<path d="M9.44 61.36H4.72V66.08H9.44V61.36Z" fill="black"/>
<path d="M37.76 61.36H33.04V66.08H37.76V61.36Z" fill="black"/>
<path d="M42.48 61.36H37.76V66.08H42.48V61.36Z" fill="black"/>
<path d="M47.2 61.36H42.48V66.08H47.2V61.36Z" fill="black"/>
<path d="M61.36 61.36H56.64V66.08H61.36V61.36Z" fill="black"/>
<path d="M70.8 61.36H66.08V66.08H70.8V61.36Z" fill="black"/>
<path d="M75.52 61.36H70.8V66.08H75.52V61.36Z" fill="black"/>
<path d="M80.24 61.36H75.52V66.08H80.24V61.36Z" fill="black"/>
<path d="M84.96 61.36H80.24V66.08H84.96V61.36Z" fill="black"/>
<path d="M99.12 61.36H94.4V66.08H99.12V61.36Z" fill="black"/>
<path d="M108.56 61.36H103.84V66.08H108.56V61.36Z" fill="black"/>
<path d="M113.28 61.36H108.56V66.08H113.28V61.36Z" fill="black"/>
<path d="M118 61.36H113.28V66.08H118V61.36Z" fill="black"/>
<path d="M4.72 66.08H0V70.8H4.72V66.08Z" fill="black"/>
<path d="M9.44 66.08H4.72V70.8H9.44V66.08Z" fill="black"/>
<path d="M14.16 66.08H9.44V70.8H14.16V66.08Z" fill="black"/>
<path d="M23.6 66.08H18.88V70.8H23.6V66.08Z" fill="black"/>
<path d="M33.04 66.08H28.32V70.8H33.04V66.08Z" fill="black"/>
<path d="M47.2 66.08H42.48V70.8H47.2V66.08Z" fill="black"/>
<path d="M56.64 66.08H51.92V70.8H56.64V66.08Z" fill="black"/>
<path d="M61.36 66.08H56.64V70.8H61.36V66.08Z" fill="black"/>
<path d="M70.8 66.08H66.08V70.8H70.8V66.08Z" fill="black"/>
<path d="M84.96 66.08H80.24V70.8H84.96V66.08Z" fill="black"/>
<path d="M94.4 66.08H89.68V70.8H94.4V66.08Z" fill="black"/>
<path d="M99.12 66.08H94.4V70.8H99.12V66.08Z" fill="black"/>
<path d="M108.56 66.08H103.84V70.8H108.56V66.08Z" fill="black"/>
<path d="M4.72 70.8H0V75.52H4.72V70.8Z" fill="black"/>
<path d="M14.16 70.8H9.44V75.52H14.16V70.8Z" fill="black"/>
<path d="M18.88 70.8H14.16V75.52H18.88V70.8Z" fill="black"/>
<path d="M23.6 70.8H18.88V75.52H23.6V70.8Z" fill="black"/>
<path d="M37.76 70.8L33.04 70.8V75.52H37.76V70.8Z" fill="black"/>
<path d="M42.48 70.8L37.76 70.8V75.52H42.48V70.8Z" fill="black"/>
<path d="M47.2 70.8H42.48V75.52H47.2V70.8Z" fill="black"/>
<path d="M51.92 70.8H47.2V75.52H51.92V70.8Z" fill="black"/>
<path d="M66.08 70.8H61.36V75.52H66.08V70.8Z" fill="black"/>
<path d="M70.8 70.8H66.08V75.52H70.8V70.8Z" fill="black"/>
<path d="M75.52 70.8L70.8 70.8V75.52H75.52V70.8Z" fill="black"/>
<path d="M80.24 70.8L75.52 70.8V75.52H80.24V70.8Z" fill="black"/>
<path d="M103.84 70.8H99.12V75.52H103.84V70.8Z" fill="black"/>
<path d="M108.56 70.8H103.84V75.52H108.56V70.8Z" fill="black"/>
<path d="M118 70.8H113.28V75.52H118V70.8Z" fill="black"/>
<path d="M4.72 75.52H0V80.24H4.72V75.52Z" fill="black"/>
<path d="M14.16 75.52H9.44V80.24H14.16V75.52Z" fill="black"/>
<path d="M18.88 75.52H14.16V80.24H18.88V75.52Z" fill="black"/>
<path d="M28.32 75.52H23.6V80.24H28.32V75.52Z" fill="black"/>
<path d="M33.04 75.52H28.32V80.24H33.04V75.52Z" fill="black"/>
<path d="M37.76 75.52H33.04V80.24H37.76V75.52Z" fill="black"/>
<path d="M42.48 75.52H37.76V80.24H42.48V75.52Z" fill="black"/>
<path d="M47.2 75.52H42.48V80.24H47.2V75.52Z" fill="black"/>
<path d="M51.92 75.52H47.2V80.24H51.92V75.52Z" fill="black"/>
<path d="M66.08 75.52H61.36V80.24H66.08V75.52Z" fill="black"/>
<path d="M75.52 75.52H70.8L70.8 80.24H75.52V75.52Z" fill="black"/>
<path d="M80.24 75.52H75.52V80.24H80.24V75.52Z" fill="black"/>
<path d="M84.96 75.52H80.24V80.24H84.96V75.52Z" fill="black"/>
<path d="M89.68 75.52H84.96V80.24H89.68V75.52Z" fill="black"/>
<path d="M94.4 75.52H89.68V80.24H94.4V75.52Z" fill="black"/>
<path d="M99.12 75.52H94.4V80.24H99.12V75.52Z" fill="black"/>
<path d="M103.84 75.52H99.12V80.24H103.84V75.52Z" fill="black"/>
<path d="M108.56 75.52H103.84V80.24H108.56V75.52Z" fill="black"/>
<path d="M42.48 80.24H37.76V84.96H42.48V80.24Z" fill="black"/>
<path d="M56.64 80.24H51.92V84.96H56.64V80.24Z" fill="black"/>
<path d="M61.36 80.24H56.64V84.96H61.36V80.24Z" fill="black"/>
<path d="M80.24 80.24H75.52V84.96H80.24V80.24Z" fill="black"/>
<path d="M99.12 80.24H94.4V84.96H99.12V80.24Z" fill="black"/>
<path d="M103.84 80.24H99.12V84.96H103.84V80.24Z" fill="black"/>
<path d="M118 80.24H113.28V84.96H118V80.24Z" fill="black"/>
<path d="M4.72 84.96H0V89.68H4.72V84.96Z" fill="black"/>
<path d="M9.44 84.96H4.72V89.68H9.44V84.96Z" fill="black"/>
<path d="M14.16 84.96H9.44V89.68H14.16V84.96Z" fill="black"/>
<path d="M18.88 84.96H14.16V89.68H18.88V84.96Z" fill="black"/>
<path d="M23.6 84.96H18.88V89.68H23.6V84.96Z" fill="black"/>
<path d="M28.32 84.96H23.6V89.68H28.32V84.96Z" fill="black"/>
<path d="M33.04 84.96H28.32V89.68H33.04V84.96Z" fill="black"/>
<path d="M42.48 84.96H37.76V89.68H42.48V84.96Z" fill="black"/>
<path d="M51.92 84.96H47.2V89.68H51.92V84.96Z" fill="black"/>
<path d="M56.64 84.96H51.92V89.68H56.64V84.96Z" fill="black"/>
<path d="M61.36 84.96H56.64V89.68H61.36V84.96Z" fill="black"/>
<path d="M80.24 84.96H75.52V89.68H80.24V84.96Z" fill="black"/>
<path d="M89.68 84.96H84.96V89.68H89.68V84.96Z" fill="black"/>
<path d="M99.12 84.96H94.4V89.68H99.12V84.96Z" fill="black"/>
<path d="M103.84 84.96H99.12V89.68H103.84V84.96Z" fill="black"/>
<path d="M108.56 84.96H103.84V89.68H108.56V84.96Z" fill="black"/>
<path d="M4.72 89.68H0V94.4H4.72V89.68Z" fill="black"/>
<path d="M33.04 89.68H28.32L28.32 94.4H33.04V89.68Z" fill="black"/>
<path d="M42.48 89.68H37.76V94.4H42.48V89.68Z" fill="black"/>
<path d="M61.36 89.68H56.64V94.4H61.36V89.68Z" fill="black"/>
<path d="M66.08 89.68H61.36V94.4H66.08V89.68Z" fill="black"/>
<path d="M75.52 89.68H70.8V94.4H75.52V89.68Z" fill="black"/>
<path d="M80.24 89.68H75.52V94.4H80.24V89.68Z" fill="black"/>
<path d="M99.12 89.68H94.4V94.4H99.12V89.68Z" fill="black"/>
<path d="M103.84 89.68H99.12V94.4H103.84V89.68Z" fill="black"/>
<path d="M108.56 89.68H103.84V94.4H108.56V89.68Z" fill="black"/>
<path d="M113.28 89.68H108.56V94.4H113.28V89.68Z" fill="black"/>
<path d="M118 89.68H113.28V94.4H118V89.68Z" fill="black"/>
<path d="M4.72 94.4H0V99.12H4.72V94.4Z" fill="black"/>
<path d="M14.16 94.4H9.44V99.12H14.16V94.4Z" fill="black"/>
<path d="M18.88 94.4H14.16V99.12H18.88V94.4Z" fill="black"/>
<path d="M23.6 94.4H18.88V99.12H23.6V94.4Z" fill="black"/>
<path d="M33.04 94.4H28.32V99.12H33.04V94.4Z" fill="black"/>
<path d="M42.48 94.4H37.76V99.12H42.48V94.4Z" fill="black"/>
<path d="M47.2 94.4H42.48V99.12H47.2V94.4Z" fill="black"/>
<path d="M66.08 94.4H61.36V99.12H66.08V94.4Z" fill="black"/>
<path d="M80.24 94.4H75.52V99.12H80.24V94.4Z" fill="black"/>
<path d="M84.96 94.4H80.24V99.12H84.96V94.4Z" fill="black"/>
<path d="M89.68 94.4H84.96V99.12H89.68V94.4Z" fill="black"/>
<path d="M94.4 94.4H89.68V99.12H94.4V94.4Z" fill="black"/>
<path d="M99.12 94.4H94.4V99.12H99.12V94.4Z" fill="black"/>
<path d="M118 94.4H113.28V99.12H118V94.4Z" fill="black"/>
<path d="M4.72 99.12H0V103.84H4.72V99.12Z" fill="black"/>
<path d="M14.16 99.12H9.44V103.84H14.16V99.12Z" fill="black"/>
<path d="M18.88 99.12H14.16V103.84H18.88V99.12Z" fill="black"/>
<path d="M23.6 99.12H18.88V103.84H23.6V99.12Z" fill="black"/>
<path d="M33.04 99.12H28.32V103.84H33.04V99.12Z" fill="black"/>
<path d="M42.48 99.12H37.76V103.84H42.48V99.12Z" fill="black"/>
<path d="M47.2 99.12H42.48V103.84H47.2V99.12Z" fill="black"/>
<path d="M66.08 99.12H61.36V103.84H66.08V99.12Z" fill="black"/>
<path d="M70.8 99.12H66.08V103.84H70.8V99.12Z" fill="black"/>
<path d="M84.96 99.12H80.24V103.84H84.96V99.12Z" fill="black"/>
<path d="M89.68 99.12H84.96V103.84H89.68V99.12Z" fill="black"/>
<path d="M103.84 99.12H99.12V103.84H103.84V99.12Z" fill="black"/>
<path d="M4.72 103.84H0V108.56H4.72V103.84Z" fill="black"/>
<path d="M14.16 103.84H9.44V108.56H14.16V103.84Z" fill="black"/>
<path d="M18.88 103.84H14.16V108.56H18.88V103.84Z" fill="black"/>
<path d="M23.6 103.84H18.88V108.56H23.6V103.84Z" fill="black"/>
<path d="M33.04 103.84H28.32V108.56H33.04V103.84Z" fill="black"/>
<path d="M56.64 103.84H51.92V108.56H56.64V103.84Z" fill="black"/>
<path d="M61.36 103.84H56.64V108.56H61.36V103.84Z" fill="black"/>
<path d="M66.08 103.84H61.36V108.56H66.08V103.84Z" fill="black"/>
<path d="M75.52 103.84H70.8L70.8 108.56H75.52V103.84Z" fill="black"/>
<path d="M80.24 103.84H75.52V108.56H80.24V103.84Z" fill="black"/>
<path d="M84.96 103.84H80.24V108.56H84.96V103.84Z" fill="black"/>
<path d="M89.68 103.84H84.96V108.56H89.68V103.84Z" fill="black"/>
<path d="M94.4 103.84H89.68V108.56H94.4V103.84Z" fill="black"/>
<path d="M99.12 103.84H94.4V108.56H99.12V103.84Z" fill="black"/>
<path d="M103.84 103.84H99.12V108.56H103.84V103.84Z" fill="black"/>
<path d="M113.28 103.84H108.56V108.56H113.28V103.84Z" fill="black"/>
<path d="M118 103.84H113.28V108.56H118V103.84Z" fill="black"/>
<path d="M4.72 108.56H0V113.28H4.72V108.56Z" fill="black"/>
<path d="M33.04 108.56H28.32V113.28H33.04V108.56Z" fill="black"/>
<path d="M47.2 108.56H42.48V113.28H47.2V108.56Z" fill="black"/>
<path d="M61.36 108.56H56.64V113.28H61.36V108.56Z" fill="black"/>
<path d="M75.52 108.56H70.8V113.28H75.52V108.56Z" fill="black"/>
<path d="M80.24 108.56H75.52V113.28H80.24V108.56Z" fill="black"/>
<path d="M94.4 108.56H89.68V113.28H94.4V108.56Z" fill="black"/>
<path d="M103.84 108.56H99.12V113.28H103.84V108.56Z" fill="black"/>
<path d="M108.56 108.56H103.84V113.28H108.56V108.56Z" fill="black"/>
<path d="M113.28 108.56H108.56V113.28H113.28V108.56Z" fill="black"/>
<path d="M118 108.56H113.28V113.28H118V108.56Z" fill="black"/>
<path d="M4.72 113.28H0V118H4.72V113.28Z" fill="black"/>
<path d="M9.44 113.28H4.72V118H9.44V113.28Z" fill="black"/>
<path d="M14.16 113.28H9.44V118H14.16V113.28Z" fill="black"/>
<path d="M18.88 113.28H14.16V118H18.88V113.28Z" fill="black"/>
<path d="M23.6 113.28H18.88V118H23.6V113.28Z" fill="black"/>
<path d="M28.32 113.28H23.6V118H28.32L28.32 113.28Z" fill="black"/>
<path d="M33.04 113.28H28.32L28.32 118H33.04V113.28Z" fill="black"/>
<path d="M42.48 113.28H37.76V118H42.48V113.28Z" fill="black"/>
<path d="M56.64 113.28H51.92V118H56.64V113.28Z" fill="black"/>
<path d="M80.24 113.28H75.52V118H80.24V113.28Z" fill="black"/>
<path d="M94.4 113.28H89.68V118H94.4V113.28Z" fill="black"/>
<path d="M99.12 113.28H94.4V118H99.12V113.28Z" fill="black"/>
<path d="M103.84 113.28H99.12V118H103.84V113.28Z" fill="black"/>
<path d="M118 113.28H113.28V118H118V113.28Z" fill="black"/>
</svg>
