<svg width="20px" height="20px" viewBox="0 0 20 20" fill="none" xmlns="http://www.w3.org/2000/svg">
<path d="M3 8.57143C4.10313 8.57143 5 7.29018 5 5.71429C5 4.13839 4.10313 2.85714 3 2.85714C1.89688 2.85714 1 4.13839 1 5.71429C1 7.29018 1.89688 8.57143 3 8.57143ZM17 8.57143C18.1031 8.57143 19 7.29018 19 5.71429C19 4.13839 18.1031 2.85714 17 2.85714C15.8969 2.85714 15 4.13839 15 5.71429C15 7.29018 15.8969 8.57143 17 8.57143ZM18 10H16C15.45 10 14.9531 10.317 14.5906 10.8304C15.85 11.817 16.7437 13.5982 16.9375 15.7143H19C19.5531 15.7143 20 15.0759 20 14.2857V12.8571C20 11.2812 19.1031 10 18 10ZM10 10C11.9344 10 13.5 7.76339 13.5 5C13.5 2.23661 11.9344 0 10 0C8.06563 0 6.5 2.23661 6.5 5C6.5 7.76339 8.06563 10 10 10ZM12.4 11.4286H12.1406C11.4906 11.875 10.7688 12.1429 10 12.1429C9.23125 12.1429 8.5125 11.875 7.85938 11.4286H7.6C5.6125 11.4286 4 13.7321 4 16.5714V17.8571C4 19.0402 4.67188 20 5.5 20H14.5C15.3281 20 16 19.0402 16 17.8571V16.5714C16 13.7321 14.3875 11.4286 12.4 11.4286ZM5.40938 10.8304C5.04688 10.317 4.55 10 4 10H2C0.896875 10 0 11.2812 0 12.8571V14.2857C0 15.0759 0.446875 15.7143 1 15.7143H3.05938C3.25625 13.5982 4.15 11.817 5.40938 10.8304Z" fill="black"/>
</svg>
